<?xml version="1.0" encoding="utf-8"?>
<svg width="464" height="153" viewBox="0 0 464 153" fill="none" xmlns="http://www.w3.org/2000/svg">
  <path d="M8.87012 0V8.57422H17.7402V17.7402H26.6104V26.9062H35.7754V35.7764H89.5869V26.9062H98.1621V17.7402H107.032V8.57422H115.901V0H125.659V134.529H115.901V143.694H107.032V152.564H17.7402V143.694H8.87012V134.529H0V0H8.87012ZM44.9414 98.752V108.213H53.8115V117.675H72.1426V108.213H81.0127V98.752H44.9414ZM17.7402 53.8115V89.8828H44.3506V53.8115H17.7402ZM80.4209 53.8115V89.8828H107.031V53.8115H80.4209Z" fill="#0FFF6B"/>
  <path d="M 351.199 9.703 L 358.727 9.703 L 358.727 17.333 L 351.199 17.333 L 351.199 9.703 Z M 381.302 9.703 L 388.828 9.703 L 388.828 17.333 L 381.302 17.333 L 381.302 9.703 Z M 381.302 17.333 L 388.828 17.333 L 388.828 24.962 L 381.302 24.962 L 381.302 17.333 Z M 388.828 9.703 L 396.353 9.703 L 396.353 17.333 L 388.828 17.333 L 388.828 9.703 Z M 388.828 17.333 L 396.353 17.333 L 396.353 24.962 L 388.828 24.962 L 388.828 17.333 Z M 388.828 24.962 L 396.353 24.962 L 396.353 32.591 L 388.828 32.591 L 388.828 24.962 Z M 388.828 32.591 L 396.353 32.591 L 396.353 40.221 L 388.828 40.221 L 388.828 32.591 Z M 388.828 40.221 L 396.353 40.221 L 396.353 47.851 L 388.828 47.851 L 388.828 40.221 Z M 388.828 47.851 L 396.353 47.851 L 396.353 55.481 L 388.828 55.481 L 388.828 47.851 Z M 388.828 55.481 L 396.353 55.481 L 396.353 63.111 L 388.828 63.111 L 388.828 55.481 Z M 388.828 63.111 L 396.353 63.111 L 396.353 70.74 L 388.828 70.74 L 388.828 63.111 Z M 381.302 63.111 L 388.828 63.111 L 388.828 70.74 L 381.302 70.74 L 381.302 63.111 Z M 381.302 55.481 L 388.828 55.481 L 388.828 63.111 L 381.302 63.111 L 381.302 55.481 Z M 381.302 47.851 L 388.828 47.851 L 388.828 55.481 L 381.302 55.481 L 381.302 47.851 Z M 381.302 40.221 L 388.828 40.221 L 388.828 47.851 L 381.302 47.851 L 381.302 40.221 Z M 381.302 32.591 L 388.828 32.591 L 388.828 40.221 L 381.302 40.221 L 381.302 32.591 Z M 381.302 24.962 L 388.828 24.962 L 388.828 32.591 L 381.302 32.591 L 381.302 24.962 Z M 373.777 55.481 L 381.302 55.481 L 381.302 63.111 L 373.777 63.111 L 373.777 55.481 Z M 373.777 63.111 L 381.302 63.111 L 381.302 70.74 L 373.777 70.74 L 373.777 63.111 Z M 381.302 70.74 L 388.828 70.74 L 388.828 78.371 L 381.302 78.371 L 381.302 70.74 Z M 373.777 70.74 L 381.302 70.74 L 381.302 78.371 L 373.777 78.371 L 373.777 70.74 Z M 366.25 70.74 L 373.777 70.74 L 373.777 78.371 L 366.25 78.371 L 366.25 70.74 Z M 366.25 63.111 L 373.777 63.111 L 373.777 70.74 L 366.25 70.74 L 366.25 63.111 Z M 358.727 70.74 L 366.25 70.74 L 366.25 78.371 L 358.727 78.371 L 358.727 70.74 Z M 351.199 70.74 L 358.727 70.74 L 358.727 78.371 L 351.199 78.371 L 351.199 70.74 Z M 351.199 63.111 L 358.727 63.111 L 358.727 70.74 L 351.199 70.74 L 351.199 63.111 Z M 358.727 63.111 L 366.25 63.111 L 366.25 70.74 L 358.727 70.74 L 358.727 63.111 Z M 358.727 55.481 L 366.25 55.481 L 366.25 63.111 L 358.727 63.111 L 358.727 55.481 Z M 351.199 55.481 L 358.727 55.481 L 358.727 63.111 L 351.199 63.111 L 351.199 55.481 Z M 343.673 63.111 L 351.199 63.111 L 351.199 70.74 L 343.673 70.74 L 343.673 63.111 Z M 343.673 55.481 L 351.199 55.481 L 351.199 63.111 L 343.673 63.111 L 343.673 55.481 Z M 343.673 47.851 L 351.199 47.851 L 351.199 55.481 L 343.673 55.481 L 343.673 47.851 Z M 343.673 40.221 L 351.199 40.221 L 351.199 47.851 L 343.673 47.851 L 343.673 40.221 Z M 343.673 32.591 L 351.199 32.591 L 351.199 40.221 L 343.673 40.221 L 343.673 32.591 Z M 343.673 24.962 L 351.199 24.962 L 351.199 32.591 L 343.673 32.591 L 343.673 24.962 Z M 343.673 17.333 L 351.199 17.333 L 351.199 24.962 L 343.673 24.962 L 343.673 17.333 Z M 351.199 17.333 L 358.727 17.333 L 358.727 24.962 L 351.199 24.962 L 351.199 17.333 Z M 343.673 9.703 L 351.199 9.703 L 351.199 17.333 L 343.673 17.333 L 343.673 9.703 Z M 351.199 24.962 L 358.727 24.962 L 358.727 32.591 L 351.199 32.591 L 351.199 24.962 Z M 351.199 32.591 L 358.727 32.591 L 358.727 40.221 L 351.199 40.221 L 351.199 32.591 Z M 351.199 40.221 L 358.727 40.221 L 358.727 47.851 L 351.199 47.851 L 351.199 40.221 Z M 351.199 47.851 L 358.727 47.851 L 358.727 55.481 L 351.199 55.481 L 351.199 47.851 Z M 343.673 2.073 L 351.199 2.073 L 351.199 9.703 L 343.673 9.703 L 343.673 2.073 Z M 351.199 2.073 L 358.727 2.073 L 358.727 9.703 L 351.199 9.703 L 351.199 2.073 Z M 381.302 2.073 L 388.828 2.073 L 388.828 9.703 L 381.302 9.703 L 381.302 2.073 Z M 388.828 2.073 L 396.353 2.073 L 396.353 9.703 L 388.828 9.703 L 388.828 2.073 Z" fill="#0FFF6B" style=""/>
  <path d="M 328.602 17.333 L 336.128 17.333 L 336.128 24.962 L 328.602 24.962 L 328.602 17.333 Z M 321.077 17.333 L 328.602 17.333 L 328.602 24.962 L 321.077 24.962 L 321.077 17.333 Z M 321.077 9.703 L 328.602 9.703 L 328.602 17.333 L 321.077 17.333 L 321.077 9.703 Z M 328.602 9.703 L 336.128 9.703 L 336.128 17.333 L 328.602 17.333 L 328.602 9.703 Z M 321.077 2.073 L 328.602 2.073 L 328.602 9.703 L 321.077 9.703 L 321.077 2.073 Z M 313.551 2.073 L 321.077 2.073 L 321.077 9.703 L 313.551 9.703 L 313.551 2.073 Z M 313.551 9.703 L 321.077 9.703 L 321.077 17.333 L 313.551 17.333 L 313.551 9.703 Z M 306.027 9.703 L 313.551 9.703 L 313.551 17.333 L 306.027 17.333 L 306.027 9.703 Z M 298.499 9.703 L 306.027 9.703 L 306.027 17.333 L 298.499 17.333 L 298.499 9.703 Z M 298.499 2.073 L 306.027 2.073 L 306.027 9.703 L 298.499 9.703 L 298.499 2.073 Z M 290.974 2.073 L 298.499 2.073 L 298.499 9.703 L 290.974 9.703 L 290.974 2.073 Z M 306.027 2.073 L 313.551 2.073 L 313.551 9.703 L 306.027 9.703 L 306.027 2.073 Z M 290.974 9.703 L 298.499 9.703 L 298.499 17.333 L 290.974 17.333 L 290.974 9.703 Z M 283.448 9.703 L 290.974 9.703 L 290.974 17.333 L 283.448 17.333 L 283.448 9.703 Z M 283.448 17.333 L 290.974 17.333 L 290.974 24.962 L 283.448 24.962 L 283.448 17.333 Z M 290.974 17.333 L 298.499 17.333 L 298.499 24.962 L 290.974 24.962 L 290.974 17.333 Z M 290.974 24.962 L 298.499 24.962 L 298.499 32.591 L 290.974 32.591 L 290.974 24.962 Z M 290.974 32.591 L 298.499 32.591 L 298.499 40.221 L 290.974 40.221 L 290.974 32.591 Z M 283.448 32.591 L 290.974 32.591 L 290.974 40.221 L 283.448 40.221 L 283.448 32.591 Z M 283.448 24.962 L 290.974 24.962 L 290.974 32.591 L 283.448 32.591 L 283.448 24.962 Z M 290.974 40.221 L 298.499 40.221 L 298.499 47.851 L 290.974 47.851 L 290.974 40.221 Z M 298.499 40.221 L 306.027 40.221 L 306.027 47.851 L 298.499 47.851 L 298.499 40.221 Z M 298.499 32.591 L 306.027 32.591 L 306.027 40.221 L 298.499 40.221 L 298.499 32.591 Z M 306.027 32.591 L 313.551 32.591 L 313.551 40.221 L 306.027 40.221 L 306.027 32.591 Z M 313.551 32.591 L 321.077 32.591 L 321.077 40.221 L 313.551 40.221 L 313.551 32.591 Z M 321.077 32.591 L 328.602 32.591 L 328.602 40.221 L 321.077 40.221 L 321.077 32.591 Z M 321.077 40.221 L 328.602 40.221 L 328.602 47.851 L 321.077 47.851 L 321.077 40.221 Z M 313.551 40.221 L 321.077 40.221 L 321.077 47.851 L 313.551 47.851 L 313.551 40.221 Z M 306.027 40.221 L 313.551 40.221 L 313.551 47.851 L 306.027 47.851 L 306.027 40.221 Z M 328.602 40.221 L 336.128 40.221 L 336.128 47.851 L 328.602 47.851 L 328.602 40.221 Z M 328.602 47.851 L 336.128 47.851 L 336.128 55.481 L 328.602 55.481 L 328.602 47.851 Z M 321.077 47.851 L 328.602 47.851 L 328.602 55.481 L 321.077 55.481 L 321.077 47.851 Z M 313.551 63.111 L 321.077 63.111 L 321.077 70.74 L 313.551 70.74 L 313.551 63.111 Z M 321.077 63.111 L 328.602 63.111 L 328.602 70.74 L 321.077 70.74 L 321.077 63.111 Z M 321.077 55.481 L 328.602 55.481 L 328.602 63.111 L 321.077 63.111 L 321.077 55.481 Z M 328.602 55.481 L 336.128 55.481 L 336.128 63.111 L 328.602 63.111 L 328.602 55.481 Z M 328.602 63.111 L 336.128 63.111 L 336.128 70.74 L 328.602 70.74 L 328.602 63.111 Z M 321.077 70.74 L 328.602 70.74 L 328.602 78.371 L 321.077 78.371 L 321.077 70.74 Z M 313.551 70.74 L 321.077 70.74 L 321.077 78.371 L 313.551 78.371 L 313.551 70.74 Z M 306.027 70.74 L 313.551 70.74 L 313.551 78.371 L 306.027 78.371 L 306.027 70.74 Z M 298.499 70.74 L 306.027 70.74 L 306.027 78.371 L 298.499 78.371 L 298.499 70.74 Z M 290.974 70.74 L 298.499 70.74 L 298.499 78.371 L 290.974 78.371 L 290.974 70.74 Z M 290.974 63.111 L 298.499 63.111 L 298.499 70.74 L 290.974 70.74 L 290.974 63.111 Z M 298.499 63.111 L 306.027 63.111 L 306.027 70.74 L 298.499 70.74 L 298.499 63.111 Z M 306.027 63.111 L 313.551 63.111 L 313.551 70.74 L 306.027 70.74 L 306.027 63.111 Z M 283.448 63.111 L 290.974 63.111 L 290.974 70.74 L 283.448 70.74 L 283.448 63.111 Z M 283.448 55.481 L 290.974 55.481 L 290.974 63.111 L 283.448 63.111 L 283.448 55.481 Z M 290.974 55.481 L 298.499 55.481 L 298.499 63.111 L 290.974 63.111 L 290.974 55.481 Z" fill="#0FFF6B" style=""/>
  <path d="M 260.813 70.74 L 268.339 70.74 L 268.339 78.371 L 260.813 78.371 L 260.813 70.74 Z M 268.339 70.74 L 275.864 70.74 L 275.864 78.371 L 268.339 78.371 L 268.339 70.74 Z M 268.339 63.111 L 275.864 63.111 L 275.864 70.74 L 268.339 70.74 L 268.339 63.111 Z M 268.339 55.481 L 275.864 55.481 L 275.864 63.111 L 268.339 63.111 L 268.339 55.481 Z M 268.339 47.851 L 275.864 47.851 L 275.864 55.481 L 268.339 55.481 L 268.339 47.851 Z M 268.339 40.221 L 275.864 40.221 L 275.864 47.851 L 268.339 47.851 L 268.339 40.221 Z M 268.339 32.591 L 275.864 32.591 L 275.864 40.221 L 268.339 40.221 L 268.339 32.591 Z M 260.813 32.591 L 268.339 32.591 L 268.339 40.221 L 260.813 40.221 L 260.813 32.591 Z M 260.813 40.221 L 268.339 40.221 L 268.339 47.851 L 260.813 47.851 L 260.813 40.221 Z M 260.813 47.851 L 268.339 47.851 L 268.339 55.481 L 260.813 55.481 L 260.813 47.851 Z M 260.813 55.481 L 268.339 55.481 L 268.339 63.111 L 260.813 63.111 L 260.813 55.481 Z M 260.813 63.111 L 268.339 63.111 L 268.339 70.74 L 260.813 70.74 L 260.813 63.111 Z M 260.813 24.962 L 268.339 24.962 L 268.339 32.591 L 260.813 32.591 L 260.813 24.962 Z M 268.339 24.962 L 275.864 24.962 L 275.864 32.591 L 268.339 32.591 L 268.339 24.962 Z M 268.339 17.333 L 275.864 17.333 L 275.864 24.962 L 268.339 24.962 L 268.339 17.333 Z M 268.339 9.703 L 275.864 9.703 L 275.864 17.333 L 268.339 17.333 L 268.339 9.703 Z M 268.339 2.073 L 275.864 2.073 L 275.864 9.703 L 268.339 9.703 L 268.339 2.073 Z M 260.813 2.073 L 268.339 2.073 L 268.339 9.703 L 260.813 9.703 L 260.813 2.073 Z M 260.813 9.703 L 268.339 9.703 L 268.339 17.333 L 260.813 17.333 L 260.813 9.703 Z M 260.813 17.333 L 268.339 17.333 L 268.339 24.962 L 260.813 24.962 L 260.813 17.333 Z" fill="#0FFF6B" style=""/>
  <path d="M 238.177 70.74 L 245.702 70.74 L 245.702 78.371 L 238.177 78.371 L 238.177 70.74 Z M 245.702 70.74 L 253.228 70.74 L 253.228 78.371 L 245.702 78.371 L 245.702 70.74 Z M 245.702 63.111 L 253.228 63.111 L 253.228 70.74 L 245.702 70.74 L 245.702 63.111 Z M 245.702 55.481 L 253.228 55.481 L 253.228 63.111 L 245.702 63.111 L 245.702 55.481 Z M 245.702 47.851 L 253.228 47.851 L 253.228 55.481 L 245.702 55.481 L 245.702 47.851 Z M 245.702 40.221 L 253.228 40.221 L 253.228 47.851 L 245.702 47.851 L 245.702 40.221 Z M 245.702 32.591 L 253.228 32.591 L 253.228 40.221 L 245.702 40.221 L 245.702 32.591 Z M 238.177 32.591 L 245.702 32.591 L 245.702 40.221 L 238.177 40.221 L 238.177 32.591 Z M 238.177 40.221 L 245.702 40.221 L 245.702 47.851 L 238.177 47.851 L 238.177 40.221 Z M 238.177 47.851 L 245.702 47.851 L 245.702 55.481 L 238.177 55.481 L 238.177 47.851 Z M 238.177 55.481 L 245.702 55.481 L 245.702 63.111 L 238.177 63.111 L 238.177 55.481 Z M 238.177 63.111 L 245.702 63.111 L 245.702 70.74 L 238.177 70.74 L 238.177 63.111 Z M 238.177 24.962 L 245.702 24.962 L 245.702 32.591 L 238.177 32.591 L 238.177 24.962 Z M 245.702 24.962 L 253.228 24.962 L 253.228 32.591 L 245.702 32.591 L 245.702 24.962 Z M 245.702 17.333 L 253.228 17.333 L 253.228 24.962 L 245.702 24.962 L 245.702 17.333 Z M 245.702 9.703 L 253.228 9.703 L 253.228 17.333 L 245.702 17.333 L 245.702 9.703 Z M 245.702 2.073 L 253.228 2.073 L 253.228 9.703 L 245.702 9.703 L 245.702 2.073 Z M 238.177 2.073 L 245.702 2.073 L 245.702 9.703 L 238.177 9.703 L 238.177 2.073 Z M 238.177 9.703 L 245.702 9.703 L 245.702 17.333 L 238.177 17.333 L 238.177 9.703 Z M 238.177 17.333 L 245.702 17.333 L 245.702 24.962 L 238.177 24.962 L 238.177 17.333 Z" fill="#0FFF6B" style=""/>
  <path d="M 193.022 2.073 L 200.548 2.073 L 200.548 9.703 L 193.022 9.703 L 193.022 2.073 Z M 185.496 2.073 L 193.022 2.073 L 193.022 9.703 L 185.496 9.703 L 185.496 2.073 Z M 185.496 9.703 L 193.022 9.703 L 193.022 17.333 L 185.496 17.333 L 185.496 9.703 Z M 185.496 17.333 L 193.022 17.333 L 193.022 24.962 L 185.496 24.962 L 185.496 17.333 Z M 185.496 24.962 L 193.022 24.962 L 193.022 32.591 L 185.496 32.591 L 185.496 24.962 Z M 185.496 32.591 L 193.022 32.591 L 193.022 40.221 L 185.496 40.221 L 185.496 32.591 Z M 185.496 40.221 L 193.022 40.221 L 193.022 47.851 L 185.496 47.851 L 185.496 40.221 Z M 185.496 47.851 L 193.022 47.851 L 193.022 55.481 L 185.496 55.481 L 185.496 47.851 Z M 185.496 55.481 L 193.022 55.481 L 193.022 63.111 L 185.496 63.111 L 185.496 55.481 Z M 185.496 63.111 L 193.022 63.111 L 193.022 70.74 L 185.496 70.74 L 185.496 63.111 Z M 185.496 70.74 L 193.022 70.74 L 193.022 78.371 L 185.496 78.371 L 185.496 70.74 Z M 193.022 70.74 L 200.548 70.74 L 200.548 78.371 L 193.022 78.371 L 193.022 70.74 Z M 193.022 63.111 L 200.548 63.111 L 200.548 70.74 L 193.022 70.74 L 193.022 63.111 Z M 193.022 55.481 L 200.548 55.481 L 200.548 63.111 L 193.022 63.111 L 193.022 55.481 Z M 193.022 47.851 L 200.548 47.851 L 200.548 55.481 L 193.022 55.481 L 193.022 47.851 Z M 193.022 40.221 L 200.548 40.221 L 200.548 47.851 L 193.022 47.851 L 193.022 40.221 Z M 193.022 32.591 L 200.548 32.591 L 200.548 40.221 L 193.022 40.221 L 193.022 32.591 Z M 193.022 24.962 L 200.548 24.962 L 200.548 32.591 L 193.022 32.591 L 193.022 24.962 Z M 193.022 17.333 L 200.548 17.333 L 200.548 24.962 L 193.022 24.962 L 193.022 17.333 Z M 193.022 9.703 L 200.548 9.703 L 200.548 17.333 L 193.022 17.333 L 193.022 9.703 Z M 200.548 40.221 L 208.074 40.221 L 208.074 47.851 L 200.548 47.851 L 200.548 40.221 Z M 208.074 40.221 L 215.599 40.221 L 215.599 47.851 L 208.074 47.851 L 208.074 40.221 Z M 208.074 32.591 L 215.599 32.591 L 215.599 40.221 L 208.074 40.221 L 208.074 32.591 Z M 200.548 32.591 L 208.074 32.591 L 208.074 40.221 L 200.548 40.221 L 200.548 32.591 Z M 208.074 24.962 L 215.599 24.962 L 215.599 32.591 L 208.074 32.591 L 208.074 24.962 Z M 215.599 24.962 L 223.126 24.962 L 223.126 32.591 L 215.599 32.591 L 215.599 24.962 Z M 215.599 17.333 L 223.126 17.333 L 223.126 24.962 L 215.599 24.962 L 215.599 17.333 Z M 215.599 9.703 L 223.126 9.703 L 223.126 17.333 L 215.599 17.333 L 215.599 9.703 Z M 215.599 2.073 L 223.126 2.073 L 223.126 9.703 L 215.599 9.703 L 215.599 2.073 Z M 223.126 2.073 L 230.65 2.073 L 230.65 9.703 L 223.126 9.703 L 223.126 2.073 Z M 223.126 9.703 L 230.65 9.703 L 230.65 17.333 L 223.126 17.333 L 223.126 9.703 Z M 223.126 17.333 L 230.65 17.333 L 230.65 24.962 L 223.126 24.962 L 223.126 17.333 Z M 208.074 47.851 L 215.599 47.851 L 215.599 55.481 L 208.074 55.481 L 208.074 47.851 Z M 215.599 47.851 L 223.126 47.851 L 223.126 55.481 L 215.599 55.481 L 215.599 47.851 Z M 215.599 55.481 L 223.126 55.481 L 223.126 63.111 L 215.599 63.111 L 215.599 55.481 Z M 215.599 63.111 L 223.126 63.111 L 223.126 70.74 L 215.599 70.74 L 215.599 63.111 Z M 215.599 70.74 L 223.126 70.74 L 223.126 78.371 L 215.599 78.371 L 215.599 70.74 Z M 223.126 70.74 L 230.65 70.74 L 230.65 78.371 L 223.126 78.371 L 223.126 70.74 Z M 223.126 63.111 L 230.65 63.111 L 230.65 70.74 L 223.126 70.74 L 223.126 63.111 Z M 223.126 55.481 L 230.65 55.481 L 230.65 63.111 L 223.126 63.111 L 223.126 55.481 Z M 223.126 47.851 L 230.65 47.851 L 230.65 55.481 L 223.126 55.481 L 223.126 47.851 Z M 215.599 40.221 L 223.126 40.221 L 223.126 47.851 L 215.599 47.851 L 215.599 40.221 Z" fill="#0FFF6B" style=""/>
  <text style="fill: rgb(15, 255, 107); font-family: Daydream; font-size: 54px; white-space: pre;" x="134.045" y="130.815">BLOCKS</text>
</svg>